<?xml version="1.0" encoding="utf-8" standalone="no"?>
<!DOCTYPE svg PUBLIC "-//W3C//DTD SVG 1.1//EN"
  "http://www.w3.org/Graphics/SVG/1.1/DTD/svg11.dtd">
<!-- Created with matplotlib (http://matplotlib.org/) -->
<svg height="288pt" version="1.1" viewBox="0 0 432 288" width="432pt" xmlns="http://www.w3.org/2000/svg" xmlns:xlink="http://www.w3.org/1999/xlink">
 <defs>
  <style type="text/css">
*{stroke-linecap:butt;stroke-linejoin:round;}
  </style>
 </defs>
 <g id="figure_1">
  <g id="patch_1">
   <path d="M 0 288 
L 432 288 
L 432 0 
L 0 0 
z
" style="fill:#ffffff;"/>
  </g>
  <g id="axes_1">
   <g id="patch_2">
    <path d="M 54 252 
L 388.8 252 
L 388.8 34.56 
L 54 34.56 
z
" style="fill:#ffffff;"/>
   </g>
   <g id="matplotlib.axis_1">
    <g id="xtick_1">
     <g id="line2d_1">
      <defs>
       <path d="M 0 0 
L 0 3.5 
" id="m79393587df" style="stroke:#000000;stroke-width:0.8;"/>
      </defs>
      <g>
       <use style="stroke:#000000;stroke-width:0.8;" x="69.218182" xlink:href="#m79393587df" y="252"/>
      </g>
     </g>
     <g id="text_1">
      <!-- 0 -->
      <defs>
       <path d="M 31.78125 66.40625 
Q 24.171875 66.40625 20.328125 58.90625 
Q 16.5 51.421875 16.5 36.375 
Q 16.5 21.390625 20.328125 13.890625 
Q 24.171875 6.390625 31.78125 6.390625 
Q 39.453125 6.390625 43.28125 13.890625 
Q 47.125 21.390625 47.125 36.375 
Q 47.125 51.421875 43.28125 58.90625 
Q 39.453125 66.40625 31.78125 66.40625 
z
M 31.78125 74.21875 
Q 44.046875 74.21875 50.515625 64.515625 
Q 56.984375 54.828125 56.984375 36.375 
Q 56.984375 17.96875 50.515625 8.265625 
Q 44.046875 -1.421875 31.78125 -1.421875 
Q 19.53125 -1.421875 13.0625 8.265625 
Q 6.59375 17.96875 6.59375 36.375 
Q 6.59375 54.828125 13.0625 64.515625 
Q 19.53125 74.21875 31.78125 74.21875 
z
" id="DejaVuSans-30"/>
      </defs>
      <g transform="translate(66.036932 266.598437)scale(0.1 -0.1)">
       <use xlink:href="#DejaVuSans-30"/>
      </g>
     </g>
    </g>
    <g id="xtick_2">
     <g id="line2d_2">
      <g>
       <use style="stroke:#000000;stroke-width:0.8;" x="130.103086" xlink:href="#m79393587df" y="252"/>
      </g>
     </g>
     <g id="text_2">
      <!-- 1 -->
      <defs>
       <path d="M 12.40625 8.296875 
L 28.515625 8.296875 
L 28.515625 63.921875 
L 10.984375 60.40625 
L 10.984375 69.390625 
L 28.421875 72.90625 
L 38.28125 72.90625 
L 38.28125 8.296875 
L 54.390625 8.296875 
L 54.390625 0 
L 12.40625 0 
z
" id="DejaVuSans-31"/>
      </defs>
      <g transform="translate(126.921836 266.598437)scale(0.1 -0.1)">
       <use xlink:href="#DejaVuSans-31"/>
      </g>
     </g>
    </g>
    <g id="xtick_3">
     <g id="line2d_3">
      <g>
       <use style="stroke:#000000;stroke-width:0.8;" x="190.98799" xlink:href="#m79393587df" y="252"/>
      </g>
     </g>
     <g id="text_3">
      <!-- 2 -->
      <defs>
       <path d="M 19.1875 8.296875 
L 53.609375 8.296875 
L 53.609375 0 
L 7.328125 0 
L 7.328125 8.296875 
Q 12.9375 14.109375 22.625 23.890625 
Q 32.328125 33.6875 34.8125 36.53125 
Q 39.546875 41.84375 41.421875 45.53125 
Q 43.3125 49.21875 43.3125 52.78125 
Q 43.3125 58.59375 39.234375 62.25 
Q 35.15625 65.921875 28.609375 65.921875 
Q 23.96875 65.921875 18.8125 64.3125 
Q 13.671875 62.703125 7.8125 59.421875 
L 7.8125 69.390625 
Q 13.765625 71.78125 18.9375 73 
Q 24.125 74.21875 28.421875 74.21875 
Q 39.75 74.21875 46.484375 68.546875 
Q 53.21875 62.890625 53.21875 53.421875 
Q 53.21875 48.921875 51.53125 44.890625 
Q 49.859375 40.875 45.40625 35.40625 
Q 44.1875 33.984375 37.640625 27.21875 
Q 31.109375 20.453125 19.1875 8.296875 
z
" id="DejaVuSans-32"/>
      </defs>
      <g transform="translate(187.80674 266.598437)scale(0.1 -0.1)">
       <use xlink:href="#DejaVuSans-32"/>
      </g>
     </g>
    </g>
    <g id="xtick_4">
     <g id="line2d_4">
      <g>
       <use style="stroke:#000000;stroke-width:0.8;" x="251.872895" xlink:href="#m79393587df" y="252"/>
      </g>
     </g>
     <g id="text_4">
      <!-- 3 -->
      <defs>
       <path d="M 40.578125 39.3125 
Q 47.65625 37.796875 51.625 33 
Q 55.609375 28.21875 55.609375 21.1875 
Q 55.609375 10.40625 48.1875 4.484375 
Q 40.765625 -1.421875 27.09375 -1.421875 
Q 22.515625 -1.421875 17.65625 -0.515625 
Q 12.796875 0.390625 7.625 2.203125 
L 7.625 11.71875 
Q 11.71875 9.328125 16.59375 8.109375 
Q 21.484375 6.890625 26.8125 6.890625 
Q 36.078125 6.890625 40.9375 10.546875 
Q 45.796875 14.203125 45.796875 21.1875 
Q 45.796875 27.640625 41.28125 31.265625 
Q 36.765625 34.90625 28.71875 34.90625 
L 20.21875 34.90625 
L 20.21875 43.015625 
L 29.109375 43.015625 
Q 36.375 43.015625 40.234375 45.921875 
Q 44.09375 48.828125 44.09375 54.296875 
Q 44.09375 59.90625 40.109375 62.90625 
Q 36.140625 65.921875 28.71875 65.921875 
Q 24.65625 65.921875 20.015625 65.03125 
Q 15.375 64.15625 9.8125 62.3125 
L 9.8125 71.09375 
Q 15.4375 72.65625 20.34375 73.4375 
Q 25.25 74.21875 29.59375 74.21875 
Q 40.828125 74.21875 47.359375 69.109375 
Q 53.90625 64.015625 53.90625 55.328125 
Q 53.90625 49.265625 50.4375 45.09375 
Q 46.96875 40.921875 40.578125 39.3125 
z
" id="DejaVuSans-33"/>
      </defs>
      <g transform="translate(248.691645 266.598437)scale(0.1 -0.1)">
       <use xlink:href="#DejaVuSans-33"/>
      </g>
     </g>
    </g>
    <g id="xtick_5">
     <g id="line2d_5">
      <g>
       <use style="stroke:#000000;stroke-width:0.8;" x="312.757799" xlink:href="#m79393587df" y="252"/>
      </g>
     </g>
     <g id="text_5">
      <!-- 4 -->
      <defs>
       <path d="M 37.796875 64.3125 
L 12.890625 25.390625 
L 37.796875 25.390625 
z
M 35.203125 72.90625 
L 47.609375 72.90625 
L 47.609375 25.390625 
L 58.015625 25.390625 
L 58.015625 17.1875 
L 47.609375 17.1875 
L 47.609375 0 
L 37.796875 0 
L 37.796875 17.1875 
L 4.890625 17.1875 
L 4.890625 26.703125 
z
" id="DejaVuSans-34"/>
      </defs>
      <g transform="translate(309.576549 266.598437)scale(0.1 -0.1)">
       <use xlink:href="#DejaVuSans-34"/>
      </g>
     </g>
    </g>
    <g id="xtick_6">
     <g id="line2d_6">
      <g>
       <use style="stroke:#000000;stroke-width:0.8;" x="373.642703" xlink:href="#m79393587df" y="252"/>
      </g>
     </g>
     <g id="text_6">
      <!-- 5 -->
      <defs>
       <path d="M 10.796875 72.90625 
L 49.515625 72.90625 
L 49.515625 64.59375 
L 19.828125 64.59375 
L 19.828125 46.734375 
Q 21.96875 47.46875 24.109375 47.828125 
Q 26.265625 48.1875 28.421875 48.1875 
Q 40.625 48.1875 47.75 41.5 
Q 54.890625 34.8125 54.890625 23.390625 
Q 54.890625 11.625 47.5625 5.09375 
Q 40.234375 -1.421875 26.90625 -1.421875 
Q 22.3125 -1.421875 17.546875 -0.640625 
Q 12.796875 0.140625 7.71875 1.703125 
L 7.71875 11.625 
Q 12.109375 9.234375 16.796875 8.0625 
Q 21.484375 6.890625 26.703125 6.890625 
Q 35.15625 6.890625 40.078125 11.328125 
Q 45.015625 15.765625 45.015625 23.390625 
Q 45.015625 31 40.078125 35.4375 
Q 35.15625 39.890625 26.703125 39.890625 
Q 22.75 39.890625 18.8125 39.015625 
Q 14.890625 38.140625 10.796875 36.28125 
z
" id="DejaVuSans-35"/>
      </defs>
      <g transform="translate(370.461453 266.598437)scale(0.1 -0.1)">
       <use xlink:href="#DejaVuSans-35"/>
      </g>
     </g>
    </g>
   </g>
   <g id="matplotlib.axis_2">
    <g id="ytick_1">
     <g id="line2d_7">
      <defs>
       <path d="M 0 0 
L -3.5 0 
" id="m97c73aa267" style="stroke:#000000;stroke-width:0.8;"/>
      </defs>
      <g>
       <use style="stroke:#000000;stroke-width:0.8;" x="54" xlink:href="#m97c73aa267" y="242.116371"/>
      </g>
     </g>
     <g id="text_7">
      <!-- −1.00 -->
      <defs>
       <path d="M 10.59375 35.5 
L 73.1875 35.5 
L 73.1875 27.203125 
L 10.59375 27.203125 
z
" id="DejaVuSans-2212"/>
       <path d="M 10.6875 12.40625 
L 21 12.40625 
L 21 0 
L 10.6875 0 
z
" id="DejaVuSans-2e"/>
      </defs>
      <g transform="translate(16.354687 245.91559)scale(0.1 -0.1)">
       <use xlink:href="#DejaVuSans-2212"/>
       <use x="83.789062" xlink:href="#DejaVuSans-31"/>
       <use x="147.412109" xlink:href="#DejaVuSans-2e"/>
       <use x="179.199219" xlink:href="#DejaVuSans-30"/>
       <use x="242.822266" xlink:href="#DejaVuSans-30"/>
      </g>
     </g>
    </g>
    <g id="ytick_2">
     <g id="line2d_8">
      <g>
       <use style="stroke:#000000;stroke-width:0.8;" x="54" xlink:href="#m97c73aa267" y="217.407279"/>
      </g>
     </g>
     <g id="text_8">
      <!-- −0.75 -->
      <defs>
       <path d="M 8.203125 72.90625 
L 55.078125 72.90625 
L 55.078125 68.703125 
L 28.609375 0 
L 18.3125 0 
L 43.21875 64.59375 
L 8.203125 64.59375 
z
" id="DejaVuSans-37"/>
      </defs>
      <g transform="translate(16.354687 221.206498)scale(0.1 -0.1)">
       <use xlink:href="#DejaVuSans-2212"/>
       <use x="83.789062" xlink:href="#DejaVuSans-30"/>
       <use x="147.412109" xlink:href="#DejaVuSans-2e"/>
       <use x="179.199219" xlink:href="#DejaVuSans-37"/>
       <use x="242.822266" xlink:href="#DejaVuSans-35"/>
      </g>
     </g>
    </g>
    <g id="ytick_3">
     <g id="line2d_9">
      <g>
       <use style="stroke:#000000;stroke-width:0.8;" x="54" xlink:href="#m97c73aa267" y="192.698187"/>
      </g>
     </g>
     <g id="text_9">
      <!-- −0.50 -->
      <g transform="translate(16.354687 196.497406)scale(0.1 -0.1)">
       <use xlink:href="#DejaVuSans-2212"/>
       <use x="83.789062" xlink:href="#DejaVuSans-30"/>
       <use x="147.412109" xlink:href="#DejaVuSans-2e"/>
       <use x="179.199219" xlink:href="#DejaVuSans-35"/>
       <use x="242.822266" xlink:href="#DejaVuSans-30"/>
      </g>
     </g>
    </g>
    <g id="ytick_4">
     <g id="line2d_10">
      <g>
       <use style="stroke:#000000;stroke-width:0.8;" x="54" xlink:href="#m97c73aa267" y="167.989095"/>
      </g>
     </g>
     <g id="text_10">
      <!-- −0.25 -->
      <g transform="translate(16.354687 171.788314)scale(0.1 -0.1)">
       <use xlink:href="#DejaVuSans-2212"/>
       <use x="83.789062" xlink:href="#DejaVuSans-30"/>
       <use x="147.412109" xlink:href="#DejaVuSans-2e"/>
       <use x="179.199219" xlink:href="#DejaVuSans-32"/>
       <use x="242.822266" xlink:href="#DejaVuSans-35"/>
      </g>
     </g>
    </g>
    <g id="ytick_5">
     <g id="line2d_11">
      <g>
       <use style="stroke:#000000;stroke-width:0.8;" x="54" xlink:href="#m97c73aa267" y="143.280003"/>
      </g>
     </g>
     <g id="text_11">
      <!-- 0.00 -->
      <g transform="translate(24.734375 147.079221)scale(0.1 -0.1)">
       <use xlink:href="#DejaVuSans-30"/>
       <use x="63.623047" xlink:href="#DejaVuSans-2e"/>
       <use x="95.410156" xlink:href="#DejaVuSans-30"/>
       <use x="159.033203" xlink:href="#DejaVuSans-30"/>
      </g>
     </g>
    </g>
    <g id="ytick_6">
     <g id="line2d_12">
      <g>
       <use style="stroke:#000000;stroke-width:0.8;" x="54" xlink:href="#m97c73aa267" y="118.570911"/>
      </g>
     </g>
     <g id="text_12">
      <!-- 0.25 -->
      <g transform="translate(24.734375 122.370129)scale(0.1 -0.1)">
       <use xlink:href="#DejaVuSans-30"/>
       <use x="63.623047" xlink:href="#DejaVuSans-2e"/>
       <use x="95.410156" xlink:href="#DejaVuSans-32"/>
       <use x="159.033203" xlink:href="#DejaVuSans-35"/>
      </g>
     </g>
    </g>
    <g id="ytick_7">
     <g id="line2d_13">
      <g>
       <use style="stroke:#000000;stroke-width:0.8;" x="54" xlink:href="#m97c73aa267" y="93.861819"/>
      </g>
     </g>
     <g id="text_13">
      <!-- 0.50 -->
      <g transform="translate(24.734375 97.661037)scale(0.1 -0.1)">
       <use xlink:href="#DejaVuSans-30"/>
       <use x="63.623047" xlink:href="#DejaVuSans-2e"/>
       <use x="95.410156" xlink:href="#DejaVuSans-35"/>
       <use x="159.033203" xlink:href="#DejaVuSans-30"/>
      </g>
     </g>
    </g>
    <g id="ytick_8">
     <g id="line2d_14">
      <g>
       <use style="stroke:#000000;stroke-width:0.8;" x="54" xlink:href="#m97c73aa267" y="69.152726"/>
      </g>
     </g>
     <g id="text_14">
      <!-- 0.75 -->
      <g transform="translate(24.734375 72.951945)scale(0.1 -0.1)">
       <use xlink:href="#DejaVuSans-30"/>
       <use x="63.623047" xlink:href="#DejaVuSans-2e"/>
       <use x="95.410156" xlink:href="#DejaVuSans-37"/>
       <use x="159.033203" xlink:href="#DejaVuSans-35"/>
      </g>
     </g>
    </g>
    <g id="ytick_9">
     <g id="line2d_15">
      <g>
       <use style="stroke:#000000;stroke-width:0.8;" x="54" xlink:href="#m97c73aa267" y="44.443634"/>
      </g>
     </g>
     <g id="text_15">
      <!-- 1.00 -->
      <g transform="translate(24.734375 48.242853)scale(0.1 -0.1)">
       <use xlink:href="#DejaVuSans-31"/>
       <use x="63.623047" xlink:href="#DejaVuSans-2e"/>
       <use x="95.410156" xlink:href="#DejaVuSans-30"/>
       <use x="159.033203" xlink:href="#DejaVuSans-30"/>
      </g>
     </g>
    </g>
   </g>
   <g id="line2d_16">
    <path clip-path="url(#p73e37f1533)" d="M 69.218182 143.280003 
L 70.131455 143.280003 
L 70.253225 141.303407 
L 70.740304 141.303407 
L 70.862074 140.315356 
L 71.349153 140.315356 
L 71.470923 139.327602 
L 71.958003 139.327602 
L 72.079772 138.340243 
L 72.566852 138.340243 
L 72.688621 137.353378 
L 73.175701 137.353378 
L 73.29747 136.367106 
L 73.78455 136.367106 
L 73.906319 135.381525 
L 74.393399 135.381525 
L 74.515168 134.396733 
L 75.002248 134.396733 
L 75.124018 133.41283 
L 75.611097 133.41283 
L 75.732867 132.429914 
L 76.219946 132.429914 
L 76.341716 131.448083 
L 76.828795 131.448083 
L 76.950565 130.467435 
L 77.437644 130.467435 
L 77.559414 129.488068 
L 78.046493 129.488068 
L 78.168263 128.51008 
L 78.655342 128.51008 
L 78.777112 127.53357 
L 79.264191 127.53357 
L 79.385961 126.558634 
L 79.87304 126.558634 
L 79.99481 125.58537 
L 80.481889 125.58537 
L 80.603659 124.613875 
L 81.090738 124.613875 
L 81.212508 123.644248 
L 81.699587 123.644248 
L 81.821357 122.676583 
L 82.308436 122.676583 
L 82.430206 121.710979 
L 82.917285 121.710979 
L 83.039055 120.747532 
L 83.526134 120.747532 
L 83.647904 119.786338 
L 84.134983 119.786338 
L 84.256753 118.827494 
L 84.743832 118.827494 
L 84.865602 117.871095 
L 85.352681 117.871095 
L 85.474451 116.917236 
L 85.96153 116.917236 
L 86.0833 115.966014 
L 86.57038 115.966014 
L 86.692149 115.017523 
L 87.179229 115.017523 
L 87.300998 114.071859 
L 87.788078 114.071859 
L 87.909847 113.129115 
L 88.396927 113.129115 
L 88.518696 112.189386 
L 89.005776 112.189386 
L 89.127546 111.252767 
L 89.614625 111.252767 
L 89.736395 110.31935 
L 90.223474 110.31935 
L 90.345244 109.389229 
L 90.832323 109.389229 
L 90.954093 108.462497 
L 91.441172 108.462497 
L 91.562942 107.539247 
L 92.050021 107.539247 
L 92.171791 106.619571 
L 92.65887 106.619571 
L 92.78064 105.70356 
L 93.267719 105.70356 
L 93.389489 104.791308 
L 93.876568 104.791308 
L 93.998338 103.882904 
L 94.485417 103.882904 
L 94.607187 102.97844 
L 95.094266 102.97844 
L 95.216036 102.078007 
L 95.703115 102.078007 
L 95.824885 101.181693 
L 96.311964 101.181693 
L 96.433734 100.289589 
L 96.920813 100.289589 
L 97.042583 99.401784 
L 97.529662 99.401784 
L 97.651432 98.518367 
L 98.138511 98.518367 
L 98.260281 97.639426 
L 98.74736 97.639426 
L 98.86913 96.765049 
L 99.356209 96.765049 
L 99.477979 95.895324 
L 99.965058 95.895324 
L 100.086828 95.030336 
L 100.573908 95.030336 
L 100.695677 94.170174 
L 101.182757 94.170174 
L 101.304526 93.314923 
L 101.791606 93.314923 
L 101.913375 92.464668 
L 102.400455 92.464668 
L 102.522224 91.619495 
L 103.009304 91.619495 
L 103.131073 90.779488 
L 103.618153 90.779488 
L 103.739923 89.944731 
L 104.227002 89.944731 
L 104.348772 89.115307 
L 104.835851 89.115307 
L 104.957621 88.2913 
L 105.4447 88.2913 
L 105.56647 87.472791 
L 106.053549 87.472791 
L 106.175319 86.659863 
L 106.662398 86.659863 
L 106.784168 85.852598 
L 107.271247 85.852598 
L 107.393017 85.051074 
L 107.880096 85.051074 
L 108.001866 84.255374 
L 108.488945 84.255374 
L 108.610715 83.465576 
L 109.097794 83.465576 
L 109.219564 82.68176 
L 109.706643 82.68176 
L 109.828413 81.904003 
L 110.315492 81.904003 
L 110.437262 81.132384 
L 110.924341 81.132384 
L 111.046111 80.366979 
L 111.53319 80.366979 
L 111.65496 79.607866 
L 112.142039 79.607866 
L 112.263809 78.85512 
L 112.750888 78.85512 
L 112.872658 78.108816 
L 113.359737 78.108816 
L 113.481507 77.36903 
L 113.968586 77.36903 
L 114.090356 76.635834 
L 114.577435 76.635834 
L 114.699205 75.909303 
L 115.186285 75.909303 
L 115.308054 75.189509 
L 115.795134 75.189509 
L 115.916903 74.476524 
L 116.403983 74.476524 
L 116.525752 73.770419 
L 117.012832 73.770419 
L 117.134601 73.071265 
L 117.621681 73.071265 
L 117.743451 72.379132 
L 118.23053 72.379132 
L 118.3523 71.694089 
L 118.839379 71.694089 
L 118.961149 71.016204 
L 119.448228 71.016204 
L 119.569998 70.345546 
L 120.057077 70.345546 
L 120.178847 69.682181 
L 120.665926 69.682181 
L 120.787696 69.026176 
L 121.274775 69.026176 
L 121.396545 68.377596 
L 121.883624 68.377596 
L 122.005394 67.736506 
L 122.492473 67.736506 
L 122.614243 67.102971 
L 123.101322 67.102971 
L 123.223092 66.477053 
L 123.710171 66.477053 
L 123.831941 65.858816 
L 124.31902 65.858816 
L 124.44079 65.24832 
L 124.927869 65.24832 
L 125.049639 64.645628 
L 125.536718 64.645628 
L 125.658488 64.050799 
L 126.145567 64.050799 
L 126.267337 63.463893 
L 126.754416 63.463893 
L 126.876186 62.884968 
L 127.363265 62.884968 
L 127.485035 62.314083 
L 127.972114 62.314083 
L 128.093884 61.751294 
L 128.580963 61.751294 
L 128.702733 61.196659 
L 129.189813 61.196659 
L 129.311582 60.650231 
L 129.798662 60.650231 
L 129.920431 60.112066 
L 130.407511 60.112066 
L 130.52928 59.582219 
L 131.01636 59.582219 
L 131.138129 59.06074 
L 131.625209 59.06074 
L 131.746978 58.547684 
L 132.234058 58.547684 
L 132.355828 58.043101 
L 132.842907 58.043101 
L 132.964677 57.547041 
L 133.451756 57.547041 
L 133.573526 57.059555 
L 134.060605 57.059555 
L 134.182375 56.580691 
L 134.669454 56.580691 
L 134.791224 56.110496 
L 135.278303 56.110496 
L 135.400073 55.649018 
L 135.887152 55.649018 
L 136.008922 55.196304 
L 136.496001 55.196304 
L 136.617771 54.752397 
L 137.10485 54.752397 
L 137.22662 54.317344 
L 137.713699 54.317344 
L 137.835469 53.891186 
L 138.322548 53.891186 
L 138.444318 53.473968 
L 138.931397 53.473968 
L 139.053167 53.06573 
L 139.540246 53.06573 
L 139.662016 52.666513 
L 140.149095 52.666513 
L 140.270865 52.276357 
L 140.757944 52.276357 
L 140.879714 51.895302 
L 141.366793 51.895302 
L 141.488563 51.523385 
L 141.975642 51.523385 
L 142.097412 51.160644 
L 142.584491 51.160644 
L 142.706261 50.807115 
L 143.19334 50.807115 
L 143.31511 50.462833 
L 143.80219 50.462833 
L 143.923959 50.127832 
L 144.411039 50.127832 
L 144.532808 49.802147 
L 145.019888 49.802147 
L 145.141657 49.485809 
L 145.628737 49.485809 
L 145.750506 49.178851 
L 146.237586 49.178851 
L 146.359356 48.881303 
L 146.846435 48.881303 
L 146.968205 48.593194 
L 147.455284 48.593194 
L 147.577054 48.314554 
L 148.064133 48.314554 
L 148.185903 48.045411 
L 148.672982 48.045411 
L 148.794752 47.785791 
L 149.281831 47.785791 
L 149.403601 47.53572 
L 149.89068 47.53572 
L 150.01245 47.295224 
L 150.499529 47.295224 
L 150.621299 47.064326 
L 151.108378 47.064326 
L 151.230148 46.843049 
L 151.717227 46.843049 
L 151.838997 46.631417 
L 152.326076 46.631417 
L 152.447846 46.429449 
L 152.934925 46.429449 
L 153.056695 46.237165 
L 153.543774 46.237165 
L 153.665544 46.054587 
L 154.152623 46.054587 
L 154.274393 45.88173 
L 154.761472 45.88173 
L 154.883242 45.718613 
L 155.370321 45.718613 
L 155.492091 45.565253 
L 155.97917 45.565253 
L 156.10094 45.421664 
L 156.588019 45.421664 
L 156.770674 45.28786 
L 157.196868 45.28786 
L 157.379523 45.163856 
L 157.805718 45.163856 
L 157.988372 45.049663 
L 159.023416 44.945293 
L 159.20607 44.850757 
L 160.241114 44.766063 
L 160.423768 44.691221 
L 161.458812 44.626237 
L 161.641466 44.571119 
L 163.894208 44.465006 
L 164.381287 44.449394 
L 167.547302 44.519577 
L 167.790842 44.563252 
L 168.765 44.616798 
L 168.947655 44.680211 
L 169.982698 44.753484 
L 170.165353 44.836609 
L 171.200396 44.929578 
L 171.383051 45.032383 
L 171.809245 45.032383 
L 171.9919 45.145012 
L 172.418095 45.145012 
L 172.600749 45.267454 
L 173.026944 45.267454 
L 173.209598 45.399698 
L 173.635793 45.399698 
L 173.757562 45.541729 
L 174.244642 45.541729 
L 174.366411 45.693535 
L 174.853491 45.693535 
L 174.975261 45.855099 
L 175.46234 45.855099 
L 175.58411 46.026405 
L 176.071189 46.026405 
L 176.192959 46.207437 
L 176.680038 46.207437 
L 176.801808 46.398176 
L 177.288887 46.398176 
L 177.410657 46.598603 
L 177.897736 46.598603 
L 178.019506 46.808697 
L 178.506585 46.808697 
L 178.628355 47.02844 
L 179.115434 47.02844 
L 179.237204 47.257807 
L 179.724283 47.257807 
L 179.846053 47.496776 
L 180.333132 47.496776 
L 180.454902 47.745323 
L 180.941981 47.745323 
L 181.063751 48.003424 
L 181.55083 48.003424 
L 181.6726 48.271053 
L 182.159679 48.271053 
L 182.281449 48.548182 
L 182.768528 48.548182 
L 182.890298 48.834784 
L 183.377377 48.834784 
L 183.499147 49.130831 
L 183.986226 49.130831 
L 184.107996 49.436293 
L 184.595075 49.436293 
L 184.716845 49.751139 
L 185.203924 49.751139 
L 185.325694 50.075337 
L 185.812773 50.075337 
L 185.934543 50.408857 
L 186.421623 50.408857 
L 186.543392 50.751663 
L 187.030472 50.751663 
L 187.152241 51.103722 
L 187.639321 51.103722 
L 187.76109 51.464998 
L 188.24817 51.464998 
L 188.369939 51.835456 
L 188.857019 51.835456 
L 188.978788 52.215058 
L 189.465868 52.215058 
L 189.587638 52.603767 
L 190.074717 52.603767 
L 190.196487 53.001543 
L 190.683566 53.001543 
L 190.805336 53.408347 
L 191.292415 53.408347 
L 191.414185 53.824138 
L 191.901264 53.824138 
L 192.023034 54.248875 
L 192.510113 54.248875 
L 192.631883 54.682515 
L 193.118962 54.682515 
L 193.240732 55.125014 
L 193.727811 55.125014 
L 193.849581 55.576329 
L 194.33666 55.576329 
L 194.45843 56.036414 
L 194.945509 56.036414 
L 195.067279 56.505223 
L 195.554358 56.505223 
L 195.676128 56.98271 
L 196.163207 56.98271 
L 196.284977 57.468826 
L 196.772056 57.468826 
L 196.893826 57.963524 
L 197.380905 57.963524 
L 197.502675 58.466753 
L 197.989754 58.466753 
L 198.111524 58.978463 
L 198.598603 58.978463 
L 198.720373 59.498603 
L 199.207452 59.498603 
L 199.329222 60.027122 
L 199.816301 60.027122 
L 199.938071 60.563966 
L 200.42515 60.563966 
L 200.54692 61.109081 
L 201.034 61.109081 
L 201.155769 61.662413 
L 201.642849 61.662413 
L 201.764618 62.223907 
L 202.251698 62.223907 
L 202.373467 62.793506 
L 202.860547 62.793506 
L 202.982316 63.371154 
L 203.469396 63.371154 
L 203.591166 63.956793 
L 204.078245 63.956793 
L 204.200015 64.550364 
L 204.687094 64.550364 
L 204.808864 65.151808 
L 205.295943 65.151808 
L 205.417713 65.761065 
L 205.904792 65.761065 
L 206.026562 66.378074 
L 206.513641 66.378074 
L 206.635411 67.002772 
L 207.12249 67.002772 
L 207.24426 67.635099 
L 207.731339 67.635099 
L 207.853109 68.274989 
L 208.340188 68.274989 
L 208.461958 68.922381 
L 208.949037 68.922381 
L 209.070807 69.577208 
L 209.557886 69.577208 
L 209.679656 70.239405 
L 210.166735 70.239405 
L 210.288505 70.908906 
L 210.775584 70.908906 
L 210.897354 71.585644 
L 211.384433 71.585644 
L 211.506203 72.269552 
L 211.993282 72.269552 
L 212.115052 72.96056 
L 212.602131 72.96056 
L 212.723901 73.658601 
L 213.21098 73.658601 
L 213.33275 74.363603 
L 213.819829 74.363603 
L 213.941599 75.075497 
L 214.428678 75.075497 
L 214.550448 75.794212 
L 215.037528 75.794212 
L 215.159297 76.519675 
L 215.646377 76.519675 
L 215.768146 77.251814 
L 216.255226 77.251814 
L 216.376995 77.990556 
L 216.864075 77.990556 
L 216.985844 78.735826 
L 217.472924 78.735826 
L 217.594693 79.487551 
L 218.081773 79.487551 
L 218.203543 80.245656 
L 218.690622 80.245656 
L 218.812392 81.010063 
L 219.299471 81.010063 
L 219.421241 81.780698 
L 219.90832 81.780698 
L 220.03009 82.557482 
L 220.517169 82.557482 
L 220.638939 83.340339 
L 221.126018 83.340339 
L 221.247788 84.129189 
L 221.734867 84.129189 
L 221.856637 84.923955 
L 222.343716 84.923955 
L 222.465486 85.724556 
L 222.952565 85.724556 
L 223.074335 86.530913 
L 223.561414 86.530913 
L 223.683184 87.342944 
L 224.170263 87.342944 
L 224.292033 88.160569 
L 224.779112 88.160569 
L 224.900882 88.983706 
L 225.387961 88.983706 
L 225.509731 89.812273 
L 225.99681 89.812273 
L 226.11858 90.646186 
L 226.605659 90.646186 
L 226.727429 91.485363 
L 227.214508 91.485363 
L 227.336278 92.329719 
L 227.823357 92.329719 
L 227.945127 93.17917 
L 228.432206 93.17917 
L 228.553976 94.033631 
L 229.041055 94.033631 
L 229.162825 94.893017 
L 229.649905 94.893017 
L 229.771674 95.757242 
L 230.258754 95.757242 
L 230.380523 96.626218 
L 230.867603 96.626218 
L 230.989372 97.49986 
L 231.476452 97.49986 
L 231.598221 98.37808 
L 232.085301 98.37808 
L 232.207071 99.26079 
L 232.69415 99.26079 
L 232.81592 100.147902 
L 233.302999 100.147902 
L 233.424769 101.039327 
L 233.911848 101.039327 
L 234.033618 101.934977 
L 234.520697 101.934977 
L 234.642467 102.83476 
L 235.129546 102.83476 
L 235.251316 103.738588 
L 235.738395 103.738588 
L 235.860165 104.646371 
L 236.347244 104.646371 
L 236.469014 105.558016 
L 236.956093 105.558016 
L 237.077863 106.473434 
L 237.564942 106.473434 
L 237.686712 107.392532 
L 238.173791 107.392532 
L 238.295561 108.315219 
L 238.78264 108.315219 
L 238.90441 109.241403 
L 239.391489 109.241403 
L 239.513259 110.17099 
L 240.000338 110.17099 
L 240.122108 111.103889 
L 240.609187 111.103889 
L 240.730957 112.040005 
L 241.218036 112.040005 
L 241.339806 112.979244 
L 241.826885 112.979244 
L 241.948655 113.921514 
L 242.435734 113.921514 
L 242.557504 114.86672 
L 243.044583 114.86672 
L 243.166353 115.814767 
L 243.653433 115.814767 
L 243.775202 116.76556 
L 244.262282 116.76556 
L 244.384051 117.719005 
L 244.871131 117.719005 
L 244.9929 118.675006 
L 245.47998 118.675006 
L 245.601749 119.633468 
L 246.088829 119.633468 
L 246.210598 120.594294 
L 246.697678 120.594294 
L 246.819448 121.557389 
L 247.306527 121.557389 
L 247.428297 122.522655 
L 247.915376 122.522655 
L 248.037146 123.489998 
L 248.524225 123.489998 
L 248.645995 124.45932 
L 249.133074 124.45932 
L 249.254844 125.430523 
L 249.741923 125.430523 
L 249.863693 126.403512 
L 250.350772 126.403512 
L 250.472542 127.378188 
L 250.959621 127.378188 
L 251.081391 128.354455 
L 251.56847 128.354455 
L 251.69024 129.332214 
L 252.177319 129.332214 
L 252.299089 130.311367 
L 252.786168 130.311367 
L 252.907938 131.291818 
L 253.395017 131.291818 
L 253.516787 132.273467 
L 254.003866 132.273467 
L 254.125636 133.256217 
L 254.612715 133.256217 
L 254.734485 134.23997 
L 255.221564 134.23997 
L 255.343334 135.224626 
L 255.830413 135.224626 
L 255.952183 136.210088 
L 256.439262 136.210088 
L 256.561032 137.196257 
L 257.048111 137.196257 
L 257.169881 138.183034 
L 257.65696 138.183034 
L 257.77873 139.170321 
L 258.26581 139.170321 
L 258.387579 140.158019 
L 258.874659 140.158019 
L 258.996428 141.146029 
L 259.483508 141.146029 
L 259.605277 142.134252 
L 260.092357 142.134252 
L 260.214126 143.122591 
L 260.701206 143.122591 
L 260.822976 144.110944 
L 261.310055 144.110944 
L 261.431825 145.099215 
L 261.918904 145.099215 
L 262.040674 146.087304 
L 262.527753 146.087304 
L 262.649523 147.075112 
L 263.136602 147.075112 
L 263.258372 148.062541 
L 263.745451 148.062541 
L 263.867221 149.049491 
L 264.3543 149.049491 
L 264.47607 150.035864 
L 264.963149 150.035864 
L 265.084919 151.021562 
L 265.571998 151.021562 
L 265.693768 152.006486 
L 266.180847 152.006486 
L 266.302617 152.990537 
L 266.789696 152.990537 
L 266.911466 153.973617 
L 267.398545 153.973617 
L 267.520315 154.955627 
L 268.007394 154.955627 
L 268.129164 155.93647 
L 268.616243 155.93647 
L 268.738013 156.916048 
L 269.225092 156.916048 
L 269.346862 157.894262 
L 269.833941 157.894262 
L 269.955711 158.871014 
L 270.44279 158.871014 
L 270.56456 159.846207 
L 271.051639 159.846207 
L 271.173409 160.819744 
L 271.660488 160.819744 
L 271.782258 161.791527 
L 272.269338 161.791527 
L 272.391107 162.761459 
L 272.878187 162.761459 
L 272.999956 163.729442 
L 273.487036 163.729442 
L 273.608805 164.695381 
L 274.095885 164.695381 
L 274.217654 165.659178 
L 274.704734 165.659178 
L 274.826503 166.620737 
L 275.313583 166.620737 
L 275.435353 167.579962 
L 275.922432 167.579962 
L 276.044202 168.536757 
L 276.531281 168.536757 
L 276.653051 169.491027 
L 277.14013 169.491027 
L 277.2619 170.442675 
L 277.748979 170.442675 
L 277.870749 171.391607 
L 278.357828 171.391607 
L 278.479598 172.337728 
L 278.966677 172.337728 
L 279.088447 173.280943 
L 279.575526 173.280943 
L 279.697296 174.221159 
L 280.184375 174.221159 
L 280.306145 175.15828 
L 280.793224 175.15828 
L 280.914994 176.092213 
L 281.402073 176.092213 
L 281.523843 177.022865 
L 282.010922 177.022865 
L 282.132692 177.950143 
L 282.619771 177.950143 
L 282.741541 178.873954 
L 283.22862 178.873954 
L 283.35039 179.794205 
L 283.837469 179.794205 
L 283.959239 180.710805 
L 284.446318 180.710805 
L 284.568088 181.623662 
L 285.055167 181.623662 
L 285.176937 182.532685 
L 285.664016 182.532685 
L 285.785786 183.437783 
L 286.272865 183.437783 
L 286.394635 184.338864 
L 286.881715 184.338864 
L 287.003484 185.23584 
L 287.490564 185.23584 
L 287.612333 186.128621 
L 288.099413 186.128621 
L 288.221182 187.017116 
L 288.708262 187.017116 
L 288.830031 187.901238 
L 289.317111 187.901238 
L 289.438881 188.780898 
L 289.92596 188.780898 
L 290.04773 189.656007 
L 290.534809 189.656007 
L 290.656579 190.52648 
L 291.143658 190.52648 
L 291.265428 191.392227 
L 291.752507 191.392227 
L 291.874277 192.253163 
L 292.361356 192.253163 
L 292.483126 193.109202 
L 292.970205 193.109202 
L 293.091975 193.960259 
L 293.579054 193.960259 
L 293.700824 194.806247 
L 294.187903 194.806247 
L 294.309673 195.647083 
L 294.796752 195.647083 
L 294.918522 196.482681 
L 295.405601 196.482681 
L 295.527371 197.31296 
L 296.01445 197.31296 
L 296.13622 198.137836 
L 296.623299 198.137836 
L 296.745069 198.957225 
L 297.232148 198.957225 
L 297.353918 199.771048 
L 297.840997 199.771048 
L 297.962767 200.579221 
L 298.449846 200.579221 
L 298.571616 201.381664 
L 299.058695 201.381664 
L 299.180465 202.178297 
L 299.667544 202.178297 
L 299.789314 202.96904 
L 300.276393 202.96904 
L 300.398163 203.753814 
L 300.885243 203.753814 
L 301.007012 204.532541 
L 301.494092 204.532541 
L 301.615861 205.305143 
L 302.102941 205.305143 
L 302.22471 206.071543 
L 302.71179 206.071543 
L 302.833559 206.831663 
L 303.320639 206.831663 
L 303.442408 207.585428 
L 303.929488 207.585428 
L 304.051258 208.332763 
L 304.538337 208.332763 
L 304.660107 209.073592 
L 305.147186 209.073592 
L 305.268956 209.807843 
L 305.756035 209.807843 
L 305.877805 210.53544 
L 306.364884 210.53544 
L 306.486654 211.256312 
L 306.973733 211.256312 
L 307.095503 211.970386 
L 307.582582 211.970386 
L 307.704352 212.677592 
L 308.191431 212.677592 
L 308.313201 213.377857 
L 308.80028 213.377857 
L 308.92205 214.071113 
L 309.409129 214.071113 
L 309.530899 214.75729 
L 310.017978 214.75729 
L 310.139748 215.43632 
L 310.626827 215.43632 
L 310.748597 216.108133 
L 311.235676 216.108133 
L 311.357446 216.772664 
L 311.844525 216.772664 
L 311.966295 217.429846 
L 312.453374 217.429846 
L 312.575144 218.079613 
L 313.062223 218.079613 
L 313.183993 218.7219 
L 313.671072 218.7219 
L 313.792842 219.356642 
L 314.279921 219.356642 
L 314.401691 219.983778 
L 314.88877 219.983778 
L 315.01054 220.603242 
L 315.49762 220.603242 
L 315.619389 221.214975 
L 316.106469 221.214975 
L 316.228238 221.818914 
L 316.715318 221.818914 
L 316.837087 222.415 
L 317.324167 222.415 
L 317.445936 223.003171 
L 317.933016 223.003171 
L 318.054786 223.583371 
L 318.541865 223.583371 
L 318.663635 224.15554 
L 319.150714 224.15554 
L 319.272484 224.719622 
L 319.759563 224.719622 
L 319.881333 225.27556 
L 320.368412 225.27556 
L 320.490182 225.823299 
L 320.977261 225.823299 
L 321.099031 226.362783 
L 321.58611 226.362783 
L 321.70788 226.893959 
L 322.194959 226.893959 
L 322.316729 227.416774 
L 322.803808 227.416774 
L 322.925578 227.931175 
L 323.412657 227.931175 
L 323.534427 228.437111 
L 324.021506 228.437111 
L 324.143276 228.934532 
L 324.630355 228.934532 
L 324.752125 229.423387 
L 325.239204 229.423387 
L 325.360974 229.903627 
L 325.848053 229.903627 
L 325.969823 230.375206 
L 326.456902 230.375206 
L 326.578672 230.838075 
L 327.065751 230.838075 
L 327.187521 231.292188 
L 327.6746 231.292188 
L 327.79637 231.7375 
L 328.283449 231.7375 
L 328.405219 232.173967 
L 328.892298 232.173967 
L 329.014068 232.601544 
L 329.501148 232.601544 
L 329.622917 233.020189 
L 330.109997 233.020189 
L 330.231766 233.42986 
L 330.718846 233.42986 
L 330.840615 233.830517 
L 331.327695 233.830517 
L 331.449464 234.222118 
L 331.936544 234.222118 
L 332.058313 234.604625 
L 332.545393 234.604625 
L 332.667163 234.978 
L 333.154242 234.978 
L 333.276012 235.342205 
L 333.763091 235.342205 
L 333.884861 235.697204 
L 334.37194 235.697204 
L 334.49371 236.042961 
L 334.980789 236.042961 
L 335.102559 236.379442 
L 335.589638 236.379442 
L 335.711408 236.706613 
L 336.198487 236.706613 
L 336.320257 237.024441 
L 336.807336 237.024441 
L 336.929106 237.332896 
L 337.416185 237.332896 
L 337.537955 237.631945 
L 338.025034 237.631945 
L 338.146804 237.921558 
L 338.633883 237.921559 
L 338.755653 238.201708 
L 339.242732 238.201708 
L 339.364502 238.472366 
L 339.851581 238.472366 
L 339.973351 238.733505 
L 340.46043 238.733505 
L 340.5822 238.985098 
L 341.069279 238.985098 
L 341.191049 239.227121 
L 341.678128 239.227121 
L 341.799898 239.459549 
L 342.286977 239.459549 
L 342.408747 239.682359 
L 342.895826 239.682359 
L 343.017596 239.895529 
L 343.504675 239.895529 
L 343.626445 240.099038 
L 344.113525 240.099038 
L 344.235294 240.292865 
L 344.722374 240.292865 
L 344.844143 240.476991 
L 345.331223 240.476991 
L 345.452992 240.651397 
L 345.940072 240.651397 
L 346.061841 240.816066 
L 346.548921 240.816066 
L 346.670691 240.970981 
L 347.15777 240.970981 
L 347.27954 241.116128 
L 347.766619 241.116128 
L 347.949273 241.251491 
L 348.375468 241.251491 
L 348.558123 241.377056 
L 348.984317 241.377056 
L 349.166972 241.492813 
L 350.202015 241.598748 
L 350.38467 241.694851 
L 351.419713 241.781113 
L 351.602368 241.857525 
L 352.637411 241.924079 
L 352.820066 241.980769 
L 355.072807 242.0916 
L 355.499002 242.108786 
L 359.334751 242.004371 
L 359.517405 241.952396 
L 360.552449 241.890554 
L 360.735103 241.818851 
L 361.770147 241.737295 
L 361.952801 241.645893 
L 362.987845 241.544654 
L 363.1705 241.433589 
L 363.596694 241.433589 
L 363.779349 241.312708 
L 364.205543 241.312708 
L 364.388198 241.182025 
L 364.814392 241.182025 
L 364.936162 241.041551 
L 365.423241 241.041551 
L 365.545011 240.891301 
L 366.03209 240.891301 
L 366.15386 240.731291 
L 366.640939 240.731291 
L 366.762709 240.561535 
L 367.249788 240.561535 
L 367.371558 240.382051 
L 367.858637 240.382051 
L 367.980407 240.192857 
L 368.467486 240.192857 
L 368.589256 239.993972 
L 369.076335 239.993972 
L 369.198105 239.785415 
L 369.685184 239.785415 
L 369.806954 239.567208 
L 370.294033 239.567208 
L 370.415803 239.339372 
L 370.902882 239.339372 
L 371.024652 239.101931 
L 371.511731 239.101931 
L 371.633501 238.854907 
L 372.12058 238.854907 
L 372.24235 238.598326 
L 372.72943 238.598326 
L 372.851199 143.280002 
L 373.581818 143.280002 
L 373.581818 143.280002 
" style="fill:none;stroke:#1f77b4;stroke-linecap:square;stroke-width:1.5;"/>
   </g>
   <g id="line2d_17">
    <path clip-path="url(#p73e37f1533)" d="M 69.218182 143.280003 
L 83.465249 120.362779 
L 91.014978 108.647568 
L 97.286123 99.313243 
L 102.887534 91.366947 
L 108.001866 84.493468 
L 112.690003 78.555821 
L 117.134601 73.280277 
L 121.33566 68.636133 
L 125.293179 64.58579 
L 129.068043 61.031866 
L 132.721137 57.893386 
L 136.252461 55.151516 
L 139.662016 52.785328 
L 142.949801 50.77227 
L 146.115816 49.088597 
L 149.220946 47.684615 
L 152.265191 46.549468 
L 155.248552 45.67158 
L 158.171027 45.038784 
L 161.093502 44.632292 
L 164.015978 44.45304 
L 166.877568 44.498112 
L 169.739159 44.761353 
L 172.661634 45.254769 
L 175.58411 45.973991 
L 178.56747 46.939386 
L 181.611715 48.16286 
L 184.716845 49.655701 
L 187.88286 51.428457 
L 191.10976 53.490788 
L 194.45843 55.89747 
L 197.928869 58.670422 
L 201.521079 61.830007 
L 205.235058 65.394577 
L 209.131692 69.445651 
L 213.21098 74.010236 
L 217.533809 79.186092 
L 222.100176 85.003754 
L 227.031854 91.653823 
L 232.389725 99.26079 
L 238.356446 108.130399 
L 245.23644 118.770743 
L 254.064751 132.862991 
L 278.236058 171.675743 
L 285.116052 182.169542 
L 291.082773 190.873351 
L 296.440644 198.302155 
L 301.372322 204.764969 
L 305.93869 210.390456 
L 310.261518 215.36874 
L 314.340806 219.733841 
L 318.23744 223.583371 
L 321.951419 226.946618 
L 325.543629 229.903628 
L 329.014068 232.474207 
L 332.362738 234.680032 
L 335.589638 236.544193 
L 338.755653 238.118659 
L 341.860783 239.413832 
L 344.905028 240.440943 
L 347.888389 241.21191 
L 350.810864 241.739213 
L 353.733339 242.039709 
L 356.59493 242.113508 
L 359.45652 241.969025 
L 362.378996 241.596502 
L 365.301471 240.997502 
L 368.223947 240.173404 
L 371.207307 239.101931 
L 373.581818 238.084584 
L 373.581818 238.084584 
" style="fill:none;stroke:#ff7f0e;stroke-linecap:square;stroke-width:1.5;"/>
   </g>
   <g id="patch_3">
    <path d="M 54 252 
L 54 34.56 
" style="fill:none;stroke:#000000;stroke-linecap:square;stroke-linejoin:miter;stroke-width:0.8;"/>
   </g>
   <g id="patch_4">
    <path d="M 388.8 252 
L 388.8 34.56 
" style="fill:none;stroke:#000000;stroke-linecap:square;stroke-linejoin:miter;stroke-width:0.8;"/>
   </g>
   <g id="patch_5">
    <path d="M 54 252 
L 388.8 252 
" style="fill:none;stroke:#000000;stroke-linecap:square;stroke-linejoin:miter;stroke-width:0.8;"/>
   </g>
   <g id="patch_6">
    <path d="M 54 34.56 
L 388.8 34.56 
" style="fill:none;stroke:#000000;stroke-linecap:square;stroke-linejoin:miter;stroke-width:0.8;"/>
   </g>
  </g>
 </g>
 <defs>
  <clipPath id="p73e37f1533">
   <rect height="217.44" width="334.8" x="54" y="34.56"/>
  </clipPath>
 </defs>
</svg>
